<svg width="53" height="40" viewBox="0 0 53 40" fill="none" xmlns="http://www.w3.org/2000/svg">
<circle cx="26.5" cy="12.5" r="12.5" fill="black"/>
<g clip-path="url(#clip0_221_10)">
<path d="M21.1658 9.00109C21.9984 9.01083 22.8314 9.00428 23.663 9.06359C24.2935 9.10862 24.9203 9.19011 25.5481 9.25682C26.5286 9.36082 27.5065 9.36435 28.4872 9.2343C29.3429 9.12072 30.2031 9.02596 31.0685 9.01839C32.4518 9.00613 33.8355 8.97773 35.2173 9.06729C35.9567 9.11534 36.695 9.18054 37.4265 9.30117C37.7634 9.35679 37.7957 9.39543 37.8229 9.72123C37.8229 9.7256 37.8229 9.73013 37.8229 9.73433C37.8993 10.0613 37.817 10.3209 37.5406 10.5523C37.2454 10.7994 37.1934 11.1628 37.167 11.5222C37.1239 12.1127 37.0167 12.6913 36.816 13.2529C36.6808 13.6381 36.4973 14.0059 36.2695 14.3484C35.8357 14.9934 35.2182 15.3746 34.4359 15.4823C33.2556 15.645 32.0665 15.6813 30.8861 15.5074C29.5002 15.3024 28.603 14.5276 28.1828 13.2399C27.9637 12.5678 27.8378 11.8751 27.6953 11.1862C27.6892 11.1563 27.6808 11.1269 27.674 11.097C27.623 10.8717 27.5465 10.6579 27.2849 10.5884C26.9835 10.5081 26.6817 10.4968 26.403 10.6677C26.2698 10.7495 26.2235 10.8861 26.1935 11.0234C26.0887 11.4927 25.9984 11.9643 25.8889 12.4331C25.7552 13.0044 25.5921 13.5701 25.2749 14.0782C24.7788 14.8741 24.0258 15.3118 23.0921 15.4896C22.6257 15.5779 22.1533 15.6003 21.6801 15.6033C21.0022 15.6075 20.3251 15.5936 19.6495 15.5237C18.516 15.4061 17.7522 14.8237 17.281 13.845C16.9428 13.1426 16.7603 12.4052 16.6887 11.6382C16.6733 11.473 16.6552 11.3075 16.6258 11.1442C16.5735 10.8523 16.41 10.6154 16.1849 10.4231C16.0429 10.3017 15.9811 10.1687 16.0054 9.98922C16.0229 9.86388 16.0199 9.73635 16.0342 9.6105C16.0552 9.42921 16.1138 9.36519 16.2996 9.32772C16.8347 9.21985 17.3788 9.1765 17.9216 9.12324C19.0002 9.01823 20.0824 8.9947 21.1658 9.00109ZM32.5548 9.6972C31.8722 9.68561 31.1906 9.68292 30.5146 9.79801C30.0423 9.87866 29.579 9.98284 29.1655 10.2288C28.7766 10.4615 28.5394 10.7808 28.5506 11.239C28.5621 11.7375 28.6063 12.233 28.7078 12.7224C28.9398 13.8482 29.7194 14.6211 30.8871 14.8304C31.9873 15.0285 33.0972 14.9968 34.1989 14.8244C35.0895 14.6852 35.6792 14.1729 36.0061 13.3794C36.2895 12.6905 36.3283 11.968 36.2845 11.2395C36.2595 10.8241 36.069 10.4886 35.6927 10.2597C35.4084 10.087 35.0953 9.98771 34.7752 9.90067C34.0466 9.70275 33.3004 9.70359 32.5548 9.6972ZM21.8173 9.70258C20.9281 9.68477 20.1779 9.66292 19.438 9.8254C18.9894 9.92386 18.5427 10.0247 18.1472 10.2639C17.8606 10.4377 17.6687 10.6753 17.6116 11.0032C17.4705 11.8129 17.5418 12.6078 17.8423 13.3733C18.1566 14.1718 18.7483 14.6851 19.642 14.8232C20.7533 14.9949 21.8716 15.0324 22.9807 14.8274C24.0721 14.6258 24.7715 13.9794 25.0762 12.9556C25.2407 12.4028 25.2723 11.8299 25.2942 11.2578C25.3099 10.8498 25.1321 10.5417 24.7979 10.3064C24.4533 10.0638 24.0552 9.94638 23.6464 9.85111C22.9975 9.70022 22.3349 9.73988 21.8173 9.70258Z" fill="#E7441B"/>
</g>
<path d="M4.54 28.23H6.09C6.09 28.23 6.09 28.2567 6.09 28.31C6.09 28.5433 5.98667 28.67 5.78 28.69L5.58 28.71L3.29 35H2.74L0.61 28.73L0.05 28.67C0.0233333 28.3767 0.116667 28.23 0.33 28.23H2.18V28.31C2.18 28.49 2.13333 28.6 2.04 28.64C1.99333 28.6667 1.93667 28.6833 1.87 28.69L1.41 28.71H1.4L3.13 34.04L4.99 28.73L4.27 28.67C4.24333 28.3767 4.33333 28.23 4.54 28.23ZM6.34258 28.23H11.9726V29.43C11.9726 29.6433 11.8259 29.7367 11.5326 29.71L11.4626 28.74H9.53258V34.5L10.2926 34.56C10.3192 34.8533 10.2259 35 10.0126 35H8.02258C8.02258 35 8.02258 34.9733 8.02258 34.92C8.02258 34.7467 8.06924 34.6333 8.16258 34.58C8.20924 34.56 8.26591 34.5467 8.33258 34.54L8.81258 34.52V28.74H6.85258L6.78258 29.71C6.48924 29.7367 6.34258 29.6433 6.34258 29.43V28.23ZM18.1938 28.08C18.7338 28.08 19.1838 28.2033 19.5438 28.45C19.9104 28.69 20.0938 28.9967 20.0938 29.37C20.0938 29.7433 19.8838 29.9333 19.4638 29.94C19.4638 29.52 19.3438 29.1967 19.1038 28.97C18.8638 28.7367 18.5338 28.62 18.1138 28.62C17.4271 28.62 16.9038 28.8967 16.5438 29.45C16.1838 30.0033 16.0038 30.7367 16.0038 31.65C16.0038 33.5767 16.7471 34.54 18.2338 34.54C18.9271 34.54 19.5271 34.3367 20.0338 33.93C20.1204 33.9767 20.1638 34.05 20.1638 34.15C20.1638 34.3567 19.9604 34.5767 19.5538 34.81C19.1471 35.0367 18.6504 35.15 18.0638 35.15C17.1638 35.15 16.4704 34.8567 15.9838 34.27C15.5038 33.6767 15.2504 32.85 15.2238 31.79C15.2038 30.7233 15.4571 29.84 15.9838 29.14C16.5171 28.4333 17.2538 28.08 18.1938 28.08ZM26.8297 35H24.8897V34.92C24.8897 34.7467 24.9364 34.6333 25.0297 34.58C25.0764 34.56 25.133 34.5467 25.1997 34.54L25.6497 34.52V31.86H22.3397V34.5L23.0697 34.56C23.0964 34.8533 23.0064 35 22.7997 35H20.8497V34.92C20.8497 34.7467 20.8964 34.6333 20.9897 34.58C21.0364 34.56 21.093 34.5467 21.1597 34.54L21.6197 34.52V28.73L20.8897 28.67C20.863 28.3767 20.953 28.23 21.1597 28.23H23.1097V28.31C23.1097 28.49 23.063 28.6 22.9697 28.64C22.923 28.6667 22.8664 28.6833 22.7997 28.69L22.3397 28.71V31.37H25.6497V28.73L24.9297 28.67C24.903 28.3767 24.993 28.23 25.1997 28.23H27.1397V28.31C27.1397 28.49 27.093 28.6 26.9997 28.64C26.953 28.6667 26.8964 28.6833 26.8297 28.69L26.3797 28.71V34.5L27.0997 34.56C27.1264 34.8533 27.0364 35 26.8297 35ZM33.2686 35H31.3486V34.92C31.3486 34.7467 31.3953 34.6333 31.4886 34.58C31.5353 34.56 31.5919 34.5467 31.6586 34.54L32.1186 34.52L31.5886 32.69H29.4686L28.9386 34.5L29.6886 34.56C29.7153 34.8533 29.6253 35 29.4186 35H27.6686V34.92C27.6686 34.7467 27.7153 34.6333 27.8086 34.58C27.8553 34.56 27.9119 34.5467 27.9786 34.54L28.3786 34.52L30.3086 28.22C30.5219 28.1933 30.7386 28.1933 30.9586 28.22L32.8886 34.5L33.5386 34.56C33.5653 34.8533 33.4753 35 33.2686 35ZM29.6186 32.19H31.4386L30.5386 29.06L29.6186 32.19ZM37.7221 28.5C37.9354 28.68 38.0421 28.89 38.0421 29.13C38.0421 29.37 37.9788 29.5433 37.8521 29.65C37.7321 29.75 37.5854 29.7967 37.4121 29.79C37.4121 29.0167 37.0054 28.63 36.1921 28.63C35.8121 28.63 35.4954 28.72 35.2421 28.9C34.9954 29.08 34.8721 29.33 34.8721 29.65C34.8721 30.03 35.0554 30.3367 35.4221 30.57C35.6221 30.6967 35.7854 30.79 35.9121 30.85C36.0388 30.91 36.2388 31 36.5121 31.12C36.7854 31.2333 36.9954 31.3267 37.1421 31.4C37.2954 31.4733 37.4621 31.57 37.6421 31.69C37.8221 31.8033 37.9554 31.9133 38.0421 32.02C38.2554 32.2933 38.3621 32.61 38.3621 32.97C38.3621 33.57 38.1354 34.0833 37.6821 34.51C37.2354 34.9367 36.6454 35.15 35.9121 35.15C35.3854 35.15 34.9188 35.0433 34.5121 34.83C34.1121 34.6167 33.9121 34.3333 33.9121 33.98C33.9121 33.8067 33.9621 33.6633 34.0621 33.55C34.1688 33.4367 34.3121 33.38 34.4921 33.38C34.5721 33.78 34.7488 34.0833 35.0221 34.29C35.2954 34.4967 35.6588 34.6 36.1121 34.6C36.5654 34.6 36.9388 34.4767 37.2321 34.23C37.5254 33.9767 37.6721 33.6433 37.6721 33.23C37.6721 32.8433 37.5354 32.55 37.2621 32.35C37.0488 32.19 36.8188 32.06 36.5721 31.96C36.3321 31.8533 36.1221 31.76 35.9421 31.68C35.7621 31.6 35.5788 31.5133 35.3921 31.42C35.2121 31.32 35.0154 31.1933 34.8021 31.04C34.3888 30.74 34.1821 30.3333 34.1821 29.82C34.1821 29.3067 34.3788 28.8933 34.7721 28.58C35.1721 28.26 35.6654 28.0933 36.2521 28.08C36.8721 28.0667 37.3621 28.2067 37.7221 28.5ZM46.273 35H44.413V34.92C44.413 34.7467 44.463 34.6333 44.563 34.58C44.6097 34.56 44.6664 34.5467 44.733 34.54L45.153 34.52L44.773 29.29L42.903 33.77C42.7364 33.81 42.5864 33.82 42.453 33.8L40.503 29.46L40.123 34.5L40.853 34.56C40.8797 34.8533 40.7864 35 40.573 35H38.763V34.92C38.763 34.7467 38.8097 34.6333 38.903 34.58C38.9497 34.56 39.0064 34.5467 39.073 34.54L39.523 34.52L39.983 28.72L39.273 28.66C39.2397 28.36 39.333 28.21 39.553 28.21H40.743L42.763 32.75L44.623 28.21H45.863C46.0764 28.21 46.1697 28.36 46.143 28.66L45.443 28.72L45.893 34.48L46.553 34.56C46.5797 34.8533 46.4864 35 46.273 35ZM52.4092 35H50.4892V34.92C50.4892 34.7467 50.5359 34.6333 50.6292 34.58C50.6759 34.56 50.7326 34.5467 50.7992 34.54L51.2592 34.52L50.7292 32.69H48.6092L48.0792 34.5L48.8292 34.56C48.8559 34.8533 48.7659 35 48.5592 35H46.8092V34.92C46.8092 34.7467 46.8559 34.6333 46.9492 34.58C46.9959 34.56 47.0526 34.5467 47.1192 34.54L47.5192 34.52L49.4492 28.22C49.6626 28.1933 49.8792 28.1933 50.0992 28.22L52.0292 34.5L52.6792 34.56C52.7059 34.8533 52.6159 35 52.4092 35ZM48.7592 32.19H50.5792L49.6792 29.06L48.7592 32.19Z" fill="black"/>
<defs>
<clipPath id="clip0_221_10">
<rect width="21.8505" height="6.62138" fill="white" transform="translate(16 9)"/>
</clipPath>
</defs>
</svg>
