<svg class="pd-img" xmlns="http://www.w3.org/2000/svg" viewBox="0 0 134.15 60.12">
            <path class="cls-1" d="M134.15,1.4c0-.77-26-1.4-58.16-1.4C-23.95,0-6.24,2.68,22.4,2.82A24.65,24.65,0,1,0,56.58,27.44c7-7.74,13.87-8.11,21.2,0A24.65,24.65,0,1,0,111.91,2.82C125.43,2.75,134.15,2.45,134.15,1.4ZM32,48.35a23,23,0,1,1,23-23A23,23,0,0,1,32,48.35Zm24.62-22.8A24.68,24.68,0,0,0,41.52,2.82H65.09l1.06,16.7C64,20,59.16,21.53,56.58,25.55Zm21,0C75,21.55,70.16,20,68,19.49L69.1,2.79H92.67a24.69,24.69,0,0,0-15,22.76Zm47.66-.21a23,23,0,1,1-23-23,23.3,23.3,0,0,1,4.78.5,23,23,0,0,1,18.28,22.5Z"></path>
            <path class="cls-1" d="M33.83,25A2.06,2.06,0,1,1,31.76,23h.07A2.06,2.06,0,0,1,33.83,25Z"></path>
            <circle class="cls-1" cx="102.49" cy="24.99" r="2.06"></circle>
            <line class="cls-2" x1="31.78" y1="60.07" x2="102.49" y2="60.07"></line>
            <line class="cls-2" x1="31.78" y1="25.26" x2="31.78" y2="60.11"></line>
            <line class="cls-2" x1="67.14" y1="25.1" x2="67.14" y2="60.07"></line>
            <line class="cls-2" x1="102.49" y1="25.24" x2="102.49" y2="60.09"></line>
          </svg>